<svg version="1.1" viewBox="0.0 0.0 389.61417322834643 100.0" fill="none" stroke="none" stroke-linecap="square" stroke-miterlimit="10" xmlns:xlink="http://www.w3.org/1999/xlink" xmlns="http://www.w3.org/2000/svg"><clipPath id="p.0"><path d="m0 0l389.61417 0l0 100.0l-389.61417 0l0 -100.0z" clip-rule="nonzero"/></clipPath><g clip-path="url(#p.0)"><path fill="#000000" fill-opacity="0.0" d="m0 0l389.61417 0l0 100.0l-389.61417 0z" fill-rule="evenodd"/><path fill="#4ea664" d="m11.224409 29.527763l0 0c0 -5.6534214 4.583004 -10.236425 10.236425 -10.236425l40.944473 0l0 0c2.7148705 0 5.3185463 1.0784779 7.238247 2.9981804c1.9197006 1.9197025 2.9981766 4.5233765 2.9981766 7.238245l0 40.944473c0 5.6534195 -4.583 10.236427 -10.2364235 10.236427l-40.944473 0c-5.6534214 0 -10.236425 -4.583008 -10.236425 -10.236427z" fill-rule="evenodd"/><path stroke="#4ea664" stroke-width="2.0" stroke-linejoin="round" stroke-linecap="butt" d="m11.224409 29.527763l0 0c0 -5.6534214 4.583004 -10.236425 10.236425 -10.236425l40.944473 0l0 0c2.7148705 0 5.3185463 1.0784779 7.238247 2.9981804c1.9197006 1.9197025 2.9981766 4.5233765 2.9981766 7.238245l0 40.944473c0 5.6534195 -4.583 10.236427 -10.2364235 10.236427l-40.944473 0c-5.6534214 0 -10.236425 -4.583008 -10.236425 -10.236427z" fill-rule="evenodd"/><path fill="#ffffff" d="m35.181454 59.6l-2.171875 0l0 -13.171875l2.0 0l0.09375 1.015625l0.078125 0q1.1875 -0.671875 2.140625 -0.96875q0.953125 -0.3125 1.921875 -0.3125q1.109375 0 1.90625 0.359375q0.8125 0.34375 1.265625 1.03125l0.078125 0q1.0625 -0.671875 2.25 -1.03125q1.1875 -0.359375 2.390625 -0.359375q1.890625 0 2.859375 1.0q0.96875 1.0 0.96875 2.953125l0 9.484375l-2.171875 0l0 -9.21875q0 -1.15625 -0.625 -1.703125q-0.609375 -0.546875 -1.9375 -0.546875q-0.75 0 -1.578125 0.234375q-0.828125 0.21875 -1.65625 0.65625q0.0625 0.265625 0.0625 0.53125q0.015625 0.265625 0.015625 0.5625l0 9.484375l-2.171875 0l0 -9.21875q0 -1.15625 -0.625 -1.703125q-0.609375 -0.546875 -1.9375 -0.546875q-0.671875 0 -1.421875 0.234375q-0.734375 0.21875 -1.734375 0.765625l0 10.46875z" fill-rule="nonzero"/><path fill="#4ea664" d="m316.97244 29.527763l0 0c0 -5.6534214 4.583008 -10.236425 10.23642 -10.236425l40.94449 0l0 0c2.7148438 0 5.3185425 1.0784779 7.23822 2.9981804c1.9197083 1.9197025 2.9981995 4.5233765 2.9981995 7.238245l0 40.944473c0 5.6534195 -4.583008 10.236427 -10.23642 10.236427l-40.94449 0c-5.653412 0 -10.23642 -4.583008 -10.23642 -10.236427z" fill-rule="evenodd"/><path stroke="#4ea664" stroke-width="2.0" stroke-linejoin="round" stroke-linecap="butt" d="m316.97244 29.527763l0 0c0 -5.6534214 4.583008 -10.236425 10.23642 -10.236425l40.94449 0l0 0c2.7148438 0 5.3185425 1.0784779 7.23822 2.9981804c1.9197083 1.9197025 2.9981995 4.5233765 2.9981995 7.238245l0 40.944473c0 5.6534195 -4.583008 10.236427 -10.23642 10.236427l-40.94449 0c-5.653412 0 -10.23642 -4.583008 -10.23642 -10.236427z" fill-rule="evenodd"/><path fill="#ffffff" d="m345.86035 59.81875q-2.03125 0 -2.984375 -0.96875q-0.9375 -0.984375 -0.9375 -3.09375q0 -2.125 1.140625 -3.015625q1.15625 -0.890625 3.890625 -0.890625q0.90625 0 1.78125 0.078125q0.890625 0.078125 1.65625 0.234375l0 -1.28125q0 -1.46875 -0.75 -2.109375q-0.734375 -0.640625 -2.390625 -0.640625q-1.21875 0 -2.15625 0.09375q-0.9375 0.09375 -1.875 0.3125l0 -1.890625q1.078125 -0.265625 2.171875 -0.375q1.109375 -0.109375 2.53125 -0.109375q2.375 0 3.515625 1.109375q1.140625 1.109375 1.140625 3.421875l0 8.90625l-2.0 0l-0.09375 -1.21875l-0.0625 0q-0.796875 0.625 -2.0625 1.03125q-1.265625 0.40625 -2.515625 0.40625zm1.359375 -6.1875q-1.8125 0 -2.53125 0.4375q-0.703125 0.4375 -0.703125 1.5625q0 1.171875 0.578125 1.6875q0.59375 0.515625 1.9375 0.515625q1.03125 0 2.125 -0.3125q1.09375 -0.328125 1.78125 -0.796875l0 -2.828125q-0.875 -0.140625 -1.640625 -0.203125q-0.75 -0.0625 -1.546875 -0.0625z" fill-rule="nonzero"/><path fill="#4ea664" d="m215.05643 29.527763l0 0c0 -5.6534214 4.583008 -10.236425 10.236435 -10.236425l40.944473 0l0 0c2.7148743 0 5.3185425 1.0784779 7.2382507 2.9981804c1.9196777 1.9197025 2.998169 4.5233765 2.998169 7.238245l0 40.944473c0 5.6534195 -4.583008 10.236427 -10.23642 10.236427l-40.944473 0c-5.653427 0 -10.236435 -4.583008 -10.236435 -10.236427z" fill-rule="evenodd"/><path stroke="#4ea664" stroke-width="2.0" stroke-linejoin="round" stroke-linecap="butt" d="m215.05643 29.527763l0 0c0 -5.6534214 4.583008 -10.236425 10.236435 -10.236425l40.944473 0l0 0c2.7148743 0 5.3185425 1.0784779 7.2382507 2.9981804c1.9196777 1.9197025 2.998169 4.5233765 2.998169 7.238245l0 40.944473c0 5.6534195 -4.583008 10.236427 -10.23642 10.236427l-40.944473 0c-5.653427 0 -10.236435 -4.583008 -10.236435 -10.236427z" fill-rule="evenodd"/><path fill="#ffffff" d="m239.01347 59.6l-2.171875 0l0 -13.171875l2.0 0l0.09375 1.015625l0.078125 0q1.1875 -0.671875 2.140625 -0.96875q0.953125 -0.3125 1.921875 -0.3125q1.109375 0 1.90625 0.359375q0.8125 0.34375 1.265625 1.03125l0.078125 0q1.0625 -0.671875 2.25 -1.03125q1.1875 -0.359375 2.390625 -0.359375q1.890625 0 2.859375 1.0q0.96875 1.0 0.96875 2.953125l0 9.484375l-2.171875 0l0 -9.21875q0 -1.15625 -0.625 -1.703125q-0.609375 -0.546875 -1.9375 -0.546875q-0.75 0 -1.578125 0.234375q-0.828125 0.21875 -1.65625 0.65625q0.0625 0.265625 0.0625 0.53125q0.015625 0.265625 0.015625 0.5625l0 9.484375l-2.171875 0l0 -9.21875q0 -1.15625 -0.625 -1.703125q-0.609375 -0.546875 -1.9375 -0.546875q-0.671875 0 -1.421875 0.234375q-0.734375 0.21875 -1.734375 0.765625l0 10.46875z" fill-rule="nonzero"/><path fill="#4ea664" d="m113.14042 29.527763l0 0c0 -5.6534214 4.583008 -10.236425 10.236427 -10.236425l40.944473 0l0 0c2.7148743 0 5.3185425 1.0784779 7.2382507 2.9981804c1.919693 1.9197025 2.998169 4.5233765 2.998169 7.238245l0 40.944473c0 5.6534195 -4.5829926 10.236427 -10.23642 10.236427l-40.944473 0c-5.6534195 0 -10.236427 -4.583008 -10.236427 -10.236427z" fill-rule="evenodd"/><path stroke="#4ea664" stroke-width="2.0" stroke-linejoin="round" stroke-linecap="butt" d="m113.14042 29.527763l0 0c0 -5.6534214 4.583008 -10.236425 10.236427 -10.236425l40.944473 0l0 0c2.7148743 0 5.3185425 1.0784779 7.2382507 2.9981804c1.919693 1.9197025 2.998169 4.5233765 2.998169 7.238245l0 40.944473c0 5.6534195 -4.5829926 10.236427 -10.23642 10.236427l-40.944473 0c-5.6534195 0 -10.236427 -4.583008 -10.236427 -10.236427z" fill-rule="evenodd"/><path fill="#ffffff" d="m145.02812 44.146873l-2.359375 0l0 -2.265625l2.359375 0l0 2.265625zm-0.09375 15.453125l-2.171875 0l0 -13.171875l2.171875 0l0 13.171875z" fill-rule="nonzero"/><path fill="#000000" fill-opacity="0.0" d="m72.64173 50.0l40.503937 0" fill-rule="evenodd"/><path stroke="#4ea664" stroke-width="2.0" stroke-linejoin="round" stroke-linecap="butt" d="m72.64173 50.0l40.503937 0" fill-rule="evenodd"/><path fill="#000000" fill-opacity="0.0" d="m174.55774 50.0l40.503937 0" fill-rule="evenodd"/><path stroke="#4ea664" stroke-width="2.0" stroke-linejoin="round" stroke-linecap="butt" d="m174.55774 50.0l40.503937 0" fill-rule="evenodd"/><path fill="#000000" fill-opacity="0.0" d="m276.47375 50.0l40.503937 0" fill-rule="evenodd"/><path stroke="#4ea664" stroke-width="2.0" stroke-linejoin="round" stroke-linecap="butt" d="m276.47375 50.0l40.503937 0" fill-rule="evenodd"/></g></svg>